<svg xmlns="http://www.w3.org/2000/svg" viewBox="0 0 24 24"><rect width="24" height="24" rx="4" fill="#24292f"/><path d="M12 2.5c-5.24 0-9.5 4.26-9.5 9.5 0 4.2 2.72 7.76 6.5 9.02.48.09.65-.21.65-.46 0-.23-.01-.98-.01-1.78-2.38.44-3-.52-3.2-1-.1-.27-.56-1.1-.95-1.32-.33-.18-.79-.62-.01-.63.73-.01 1.25.67 1.42.95.83 1.4 2.16 1 2.69.77.08-.6.33-1.01.59-1.24-2.08-.23-4.26-1.04-4.26-4.62 0-1.02.36-1.86.96-2.51-.1-.24-.42-1.19.09-2.48 0 0 .78-.25 2.56.96.74-.21 1.54-.31 2.33-.31s1.59.1 2.33.31c1.78-1.22 2.56-.96 2.56-.96.51 1.29.19 2.24.09 2.48.6.65.96 1.49.96 2.51 0 3.59-2.19 4.39-4.27 4.62.34.29.63.85.63 1.72 0 1.24-.01 2.24-.01 2.55 0 .25.17.56.66.46A9.51 9.51 0 0 0 21.5 12c0-5.24-4.26-9.5-9.5-9.5z" fill="#ffffff"/></svg>
